<svg class="svg-icon" style="width: 1em;height: 1em;vertical-align: middle;fill: currentColor;overflow: hidden;" viewBox="0 0 1024 1024" version="1.1" xmlns="http://www.w3.org/2000/svg"><path d="M468.162926 832.478803a361.762261 361.762261 0 1 1 361.762261-361.762261 362.187864 362.187864 0 0 1-361.762261 361.762261z m0-680.964256a319.201995 319.201995 0 1 0 319.201995 319.201995A319.201995 319.201995 0 0 0 468.162926 151.514547z"  /><path d="M893.765586 917.599335a20.003325 20.003325 0 0 1-14.896093-6.38404L694.157938 726.078138a20.85453 20.85453 0 0 1 29.792187-29.792186l184.711554 184.711554a20.428928 20.428928 0 0 1 0 29.792186 20.003325 20.003325 0 0 1-14.896093 6.809643zM363.464672 576.691604a20.003325 20.003325 0 0 1-14.896093-5.958437l-81.715711-81.715711a21.705736 21.705736 0 0 1 0-30.217789l88.09975-88.09975a21.705736 21.705736 0 0 1 30.217789 0 21.280133 21.280133 0 0 1 0 30.217789l-73.203657 73.203657 66.819617 66.394015a21.705736 21.705736 0 0 1 0 30.217789 21.280133 21.280133 0 0 1-15.321695 5.958437zM572.86118 576.691604a21.280133 21.280133 0 0 1-15.321695-5.958437 21.705736 21.705736 0 0 1 0-30.217789l66.819617-66.394015L553.283458 400.917706a21.280133 21.280133 0 0 1 0-30.217789 21.705736 21.705736 0 0 1 30.217789 0l88.099751 88.09975a21.705736 21.705736 0 0 1 0 30.217789l-81.715711 81.715711a20.003325 20.003325 0 0 1-17.024107 5.958437z"  /></svg>